<svg width="100" height="100" viewBox="0 0 100 100" fill="none" xmlns="http://www.w3.org/2000/svg">
<g clip-path="url(#clip0_6_82)">
<path d="M64.8643 20.147L58.0987 26.2596L53.5913 26.7747C52.4877 26.9008 51.4514 27.3689 50.627 28.1136L39.422 38.2373L45.3689 39.7657C47.5112 40.3164 49.3111 41.6684 50.4364 43.5727C51.3189 45.0657 51.7015 46.7578 51.5613 48.4516L61.1638 39.7756C61.9878 39.0309 62.5584 38.047 62.7957 36.962L63.7641 32.529L70.529 26.4171C72.2603 24.8524 72.3958 22.1808 70.8318 20.4495C69.2675 18.7183 66.5952 18.5834 64.8643 20.147Z" fill="white"/>
<path d="M34.1855 18.6537C39.336 18.6537 43.5112 14.4784 43.5112 9.32799C43.5112 4.17756 39.336 0.00231934 34.1855 0.00231934C29.0351 0.00231934 24.8599 4.17756 24.8599 9.32799C24.8599 14.4784 29.0351 18.6537 34.1855 18.6537Z" fill="white"/>
<path d="M81.3354 21.3054L76.6442 23.5585C76.3116 23.7208 76.048 24.0311 75.9635 24.4208C75.8168 25.0958 76.2454 25.762 76.9204 25.9084L82.0061 27.0123C82.6435 27.1509 83.3321 27.0863 83.9655 26.7821C85.4777 26.0557 86.1149 24.241 85.3889 22.7287C84.6628 21.2165 82.8477 20.579 81.3354 21.3054Z" fill="white"/>
<path d="M80.7765 7.83032C81.2625 6.22444 80.3546 4.52899 78.7491 4.04293C77.1432 3.55688 75.4477 4.46477 74.9617 6.07031L73.4542 11.0512C73.349 11.4061 73.3997 11.81 73.6299 12.1355C74.0288 12.6997 74.8092 12.8335 75.3734 12.4347L79.6228 9.43046C80.1555 9.05426 80.573 8.5033 80.7765 7.83032Z" fill="white"/>
<path d="M96.049 4.61274C94.7213 3.58723 92.8136 3.83194 91.7881 5.15964L88.6067 9.27829C88.3823 9.57269 88.286 9.96816 88.3853 10.3545C88.5574 11.0234 89.2392 11.4267 89.9081 11.2546L94.9485 9.95903C95.5802 9.79679 96.1666 9.43005 96.5963 8.87403C97.6214 7.54599 97.3767 5.63826 96.049 4.61274Z" fill="white"/>
<path d="M44.3597 43.6944L30.2049 40.056L24.9228 24.8801L32.7136 36.5133L34.8802 37.07C35.1357 36.7145 35.4261 36.3822 35.7577 36.0824L39.6056 32.6056C39.6056 32.6056 37.9459 28.7858 37.2831 27.0636C36.5577 25.1786 35.4247 23.3874 33.3957 22.6127L22.9001 18.6056C19.6498 17.3645 16.0088 18.9933 14.7676 22.2436L3.28919 52.3061C2.48912 53.9438 2.59897 55.958 3.75057 57.5308L14.3664 72.0249L3.37267 92.533C2.04937 95.0008 2.97754 98.0739 5.44568 99.3969C6.20823 99.8059 7.02824 99.9996 7.83676 99.9996C9.64511 99.9996 11.3953 99.0295 12.3096 97.3239L24.8126 74.0013C25.735 72.2811 25.588 70.1845 24.4347 68.61L17.611 58.3396C17.3237 57.907 17.6336 57.3286 18.1531 57.3286C18.3468 57.3286 18.5304 57.4148 18.6541 57.5639L30.4732 71.8005L21.9632 92.8862C20.9143 95.4848 22.0656 98.5272 24.6514 99.6068C25.2912 99.8738 25.9534 100 26.6047 100C28.6111 100 30.5111 98.801 31.3081 96.8263L40.9934 72.8277C41.6826 71.1191 41.3916 69.1715 40.2322 67.7393L27.7279 52.246L24.8971 51.6051C22.2349 50.921 20.1004 48.9768 19.1689 46.3954C19.0674 46.1138 18.9596 45.6393 18.9282 45.3415L17.1351 28.2146L22.9677 44.973C23.4332 46.3095 24.5358 47.3242 25.9064 47.6764L41.0975 51.8786C41.5677 51.9996 42.0392 52.0361 42.4972 51.9982C44.2407 51.8542 46.9393 50.6283 47.3994 48.8382C47.9811 46.5782 46.6199 44.2754 44.3597 43.6944Z" fill="white"/>
</g>
<defs>
<clipPath id="clip0_6_82">
<rect width="100" height="100" fill="white"/>
</clipPath>
</defs>
</svg>
