<svg width="100" height="100" viewBox="0 0 100 100" fill="none" xmlns="http://www.w3.org/2000/svg">
<g clip-path="url(#clip0_5_54)">
<path d="M49.9997 0C48.1763 0 46.699 1.47754 46.699 3.30077V9.90232C46.699 11.7258 48.1765 13.2031 49.9997 13.2031C51.823 13.2031 53.3005 11.7256 53.3005 9.90232V3.30077C53.3005 1.47754 51.8232 0 49.9997 0Z" fill="white"/>
<path d="M39.1299 9.76918L32.5283 3.16763C31.2391 1.87837 29.15 1.87837 27.8607 3.16763C26.5715 4.4559 26.5715 6.54672 27.8607 7.83519L34.4625 14.4367C35.1072 15.0815 35.9517 15.4039 36.7961 15.4039C37.6404 15.4039 38.4851 15.0815 39.1297 14.4367C40.4193 13.1485 40.4193 11.0576 39.1299 9.76918Z" fill="white"/>
<path d="M72.1382 3.16738C70.8489 1.87813 68.7598 1.87813 67.4706 3.16738L60.869 9.76893C59.5798 11.0572 59.5798 13.148 60.869 14.4365C61.5138 15.0812 62.3583 15.4037 63.203 15.4037C64.0476 15.4037 64.8921 15.0812 65.5366 14.4365L72.1382 7.83495C73.4276 6.54687 73.4276 4.45586 72.1382 3.16738Z" fill="white"/>
<path d="M96.4065 89.5109C95.9658 87.7412 94.1715 86.6637 92.4061 87.1062L82.7967 89.5021L77.9506 70.0639C89.1912 65.5321 94.5842 53.1217 90.5039 41.4155C89.6272 38.9009 90.2678 40.3034 78.5497 18.2974C77.8373 16.9609 76.2987 16.288 74.8374 16.6458L49.9981 22.8386L25.1621 16.646C23.6902 16.2743 22.1621 16.9609 21.4498 18.2976C19.7839 21.4257 11.9701 36.0997 10.923 38.0659H10.9242C10.2603 39.3126 9.74979 40.6173 9.32205 41.943C5.55312 53.6182 11.065 65.6297 22.0492 70.0631L17.2029 89.5023L7.59452 87.1064C5.82597 86.6617 4.03476 87.7416 3.59316 89.5111C3.15254 91.2797 4.22929 93.0709 5.99784 93.5125L31.6201 99.9013C33.3953 100.343 35.181 99.2599 35.6216 97.4966C36.0622 95.7281 34.9855 93.9369 33.2169 93.4953L23.6089 91.0996L28.4552 71.6608C37.4101 72.6063 45.623 68.1992 50.0005 60.7276C54.3757 68.2029 62.5975 72.6041 71.5454 71.6606L76.3919 91.0998L66.7839 93.4955C65.0153 93.9371 63.9386 95.7281 64.3792 97.497C64.8206 99.2638 66.6081 100.343 68.3805 99.9017L94.0047 93.5129C95.7727 93.0705 96.8492 91.2795 96.4065 89.5109ZM18.675 37.555L26.0654 23.6751L46.6987 28.8198V44.8465L46.7011 44.8471L18.675 37.555ZM53.3034 44.2733L53.3136 28.8167L73.934 23.6753L81.0575 37.0522L53.3034 44.2733Z" fill="white"/>
</g>
<defs>
<clipPath id="clip0_5_54">
<rect width="100" height="100" fill="white"/>
</clipPath>
</defs>
</svg>
